<svg viewBox="0 0 220 46" xmlns="http://www.w3.org/2000/svg" fill-rule="evenodd" clip-rule="evenodd" stroke-linejoin="round" stroke-miterlimit="1.414"><path d="M132.887 34.219l-4.217 11.058h2.357l.73-2.075h4.416l.748 2.075h2.557l-4.334-11.058h-2.257zm-.482 7.106l.946-2.64c.316-.897.498-1.644.582-1.909h.033c.099.249.249.963.597 1.909l.947 2.64h-3.105zM143.477 34.219h-2.358v11.058h6.476v-1.893h-4.118v-9.165zM147.394 36.145h3.055v9.132h2.357v-9.132h3.039v-1.926h-8.451v1.926zM162.334 34.02c-3.702 0-5.712 2.74-5.712 5.745 0 2.989 2.059 5.711 5.761 5.711 3.703 0 5.646-2.773 5.646-5.778.001-2.972-1.992-5.678-5.695-5.678zm0 9.563c-2.208 0-3.221-1.81-3.221-3.885 0-2.059 1.046-3.785 3.271-3.785 2.209 0 3.171 1.793 3.171 3.852s-.995 3.818-3.221 3.818zM176.427 34.219l-4.217 11.058h2.357l.73-2.075h4.416l.748 2.075h2.557l-4.334-11.058h-2.257zm-.482 7.106l.946-2.64c.315-.897.498-1.644.582-1.909h.033c.099.249.249.963.597 1.909l.946 2.64h-3.104zM187.963 34.219h-3.337v11.058h3.254c4.4 0 6.409-2.491 6.409-5.679s-1.976-5.379-6.326-5.379zm.1 9.182h-1.096v-7.306h1.013c2.623 0 3.835 1.096 3.835 3.569 0 2.458-1.261 3.737-3.752 3.737z" fill="#707173" fill-rule="nonzero"/><path fill="#707173" d="M196.445 34.219h2.341v11.058h-2.341z"/><path d="M206.804 40.943h2.042v2.191c-.382.25-1.063.432-1.959.432-2.325 0-3.338-1.776-3.338-3.902 0-2.108 1.129-3.702 3.487-3.702 1.146 0 1.96.299 2.64.798l1.045-1.744c-.863-.631-1.975-.996-3.636-.996-3.835 0-6.027 2.706-6.027 5.712 0 2.988 2.042 5.744 5.845 5.744 2.125 0 3.403-.531 4.184-1.062v-5.281h-4.284v1.81h.001zM215.817 43.35v-2.888h3.585v-1.827h-3.585v-2.49h4.067v-1.926h-6.375v11.058H220V43.35h-4.183zM133.7 27.795c-1.355 0-2.251-.686-2.516-.88l-1.055 1.724c.51.421 1.723 1.16 3.623 1.16 2.603 0 4.204-1.354 4.204-3.483 0-2.163-1.46-2.955-3.008-3.659-1.23-.562-2.163-.862-2.163-1.776 0-.792.616-1.214 1.566-1.214 1.002 0 1.882.457 2.286.722l1.003-1.742c-.492-.37-1.512-.985-3.43-.985-2.093 0-3.781 1.249-3.781 3.254 0 1.9 1.072 2.796 2.515 3.5 1.371.686 2.621.985 2.621 2.023-.001.758-.687 1.356-1.865 1.356zM142.92 16.959c.756 0 1.301-.562 1.301-1.265 0-.669-.546-1.249-1.301-1.249-.756 0-1.302.58-1.302 1.249-.001.703.545 1.265 1.302 1.265zM149.674 24.822v-6.948h-2.286v7.124c0 1.706-.722 2.762-2.462 2.762-1.847 0-2.568-.915-2.568-2.921v-6.965h-2.48v7.176c0 3.061 1.601 4.749 4.995 4.749 3.2.001 4.801-1.776 4.801-4.977zM146.613 16.959c.757 0 1.301-.562 1.301-1.265 0-.669-.545-1.249-1.301-1.249-.755 0-1.301.58-1.301 1.249 0 .703.546 1.265 1.301 1.265zM162.764 23.573c0-3.377-2.094-5.699-6.702-5.699h-3.535v11.714h3.448c4.661.001 6.789-2.638 6.789-6.015zm-6.596 4.029h-1.16v-7.74h1.073c2.78 0 4.063 1.161 4.063 3.782-.001 2.603-1.338 3.958-3.976 3.958zM172.513 17.874h-8.952v2.041h3.235v9.674h2.499v-9.674h3.218v-2.041z" fill="#707173" fill-rule="nonzero"/><path fill="#707173" d="M174.328 17.874h2.48v11.714h-2.48z"/><path d="M189.086 29.589l-2.285-3.483c-.634-.985-1.055-1.442-1.372-1.671V24.4c1.424-.264 2.726-1.231 2.726-3.149 0-2.198-1.583-3.377-4.327-3.377h-3.905v11.714h2.48v-4.819h.159c.546 0 .739.123 1.653 1.477l2.145 3.342h2.726v.001zm-5.329-6.579h-1.354v-3.237h1.249c1.425 0 2.04.546 2.04 1.619 0 1.02-.616 1.618-1.935 1.618zM195.915 17.663c-3.922 0-6.051 2.902-6.051 6.086 0 3.166 2.181 6.05 6.104 6.05s5.98-2.937 5.98-6.121c0-3.148-2.11-6.015-6.033-6.015zm0 10.132c-2.339 0-3.413-1.918-3.413-4.117 0-2.18 1.109-4.01 3.465-4.01 2.34 0 3.36 1.9 3.36 4.081 0 2.181-1.054 4.046-3.412 4.046zM211.065 27.584h-4.362v-9.71h-2.499v11.715h6.861v-2.005z" fill="#707173" fill-rule="nonzero"/><path fill="#a9bf00" d="M0 .003h11.137v8.565H0z"/><path fill="#707173" d="M0 14.533h11.137v30.711H0z"/><path d="M108.061 45.264h11.135L102.734.033H91.598l16.463 45.231zM69.797.04l.001-.007H58.657l.002.007-2.965 8.149C51.589 3.056 44.513 0 34.172 0H17.096v8.567h11.146v-.005h4.466c11.207 0 16.38 4.25 16.38 13.711 0 9.462-5.251 14.397-15.988 14.397h-4.858V14.533H17.096v30.694h.006v.005h11.137v-.005h5.527c13.346 0 21.345-5.603 24.59-13.817l.025-.005 5.848-16.067L75.12 45.264h11.136L69.797.04z" fill="#707173" fill-rule="nonzero"/><path d="M86.25 45.264H75.115L91.577.033h11.136L86.25 45.264z" fill="#a9bf00" fill-rule="nonzero"/></svg>